<svg xmlns="http://www.w3.org/2000/svg" xmlns:xlink="http://www.w3.org/1999/xlink" viewBox="3730.489 642.651 27.511 24.249">
  <defs>
    <style>
      .cls-1 {
        clip-path: url(#clip-path);
      }

      .cls-2 {
        fill: #fff;
        stroke: #fff;
      }
    </style>
    <clipPath id="clip-path">
      <rect id="Rectangle_682" data-name="Rectangle 682" width="27.511" height="24.249"/>
    </clipPath>
  </defs>
  <g id="Group_2369" data-name="Group 2369" transform="translate(3730.489 642.651)">
    <g id="Group_2367" data-name="Group 2367" class="cls-1">
      <path id="Path_3029" data-name="Path 3029" class="cls-2" d="M40.257,14.406H30.878a.549.549,0,1,1,0-1.1h9.379a.549.549,0,1,1,0,1.1Zm-15.979,0H14.949a.549.549,0,1,1,0-1.1h9.329a.549.549,0,1,1,0,1.1ZM35.03,4.5a.549.549,0,0,1-.549-.549V2.3c0-.7-.223-1.1-1.374-1.1H22.1c-1.151,0-1.374.4-1.374,1.1v1.65a.549.549,0,0,1-1.1,0V2.3c0-1.005.43-2.2,2.479-2.2h11c2.049,0,2.479,1.2,2.479,2.2v1.65a.564.564,0,0,1-.56.549Zm0,0" transform="translate(-13.847 -0.096)"/>
    </g>
    <g id="Group_2368" data-name="Group 2368" class="cls-1">
      <path id="Path_3030" data-name="Path 3030" class="cls-2" d="M24.76,107.01H2.751A2.756,2.756,0,0,1,0,104.259V88.851A2.756,2.756,0,0,1,2.751,86.1H24.76a2.756,2.756,0,0,1,2.751,2.751v15.4a2.752,2.752,0,0,1-2.751,2.755ZM2.751,87.2a1.653,1.653,0,0,0-1.65,1.65v15.4a1.653,1.653,0,0,0,1.65,1.65H24.76a1.652,1.652,0,0,0,1.65-1.65v-15.4a1.652,1.652,0,0,0-1.65-1.65Zm0,0" transform="translate(0 -82.796)"/>
    </g>
  </g>
</svg>
