<svg xmlns="http://www.w3.org/2000/svg" xmlns:xlink="http://www.w3.org/1999/xlink" viewBox="4730.56 1297.5 22.44 22.156">
  <defs>
    <style>
      .cls-1 {
        clip-path: url(#clip-path);
      }

      .cls-2 {
        fill: #be3b7f;
      }
    </style>
    <clipPath id="clip-path">
      <rect id="Rectangle_685" data-name="Rectangle 685" width="22.441" height="22.156"/>
    </clipPath>
  </defs>
  <g id="Group_2409" data-name="Group 2409" transform="translate(3784 90)">
    <g id="Group_2377" data-name="Group 2377" transform="translate(946.56 1207.5)">
      <g id="Group_2376" data-name="Group 2376" class="cls-1">
        <path id="Path_3035" data-name="Path 3035" class="cls-2" d="M21.929,10.846A1.9,1.9,0,0,0,20.5,10.2H16.1a7.052,7.052,0,0,0,.351-1.809,3.579,3.579,0,0,0-.078-.942.121.121,0,0,0,.069-.034l5.675-5.678a.476.476,0,0,0,0-.676L21.2.141a.476.476,0,0,0-.676,0L14.842,5.816a.121.121,0,0,0-.034.069,3.579,3.579,0,0,0-.942-.078,7.7,7.7,0,0,0-2.341.535A12.639,12.639,0,0,0,7.433,8.818a5.217,5.217,0,0,0-.992,1.38H1.868a1.888,1.888,0,0,0-1.424.648A1.917,1.917,0,0,0-.01,12.355a11.3,11.3,0,0,0,22.387,0,1.89,1.89,0,0,0-.448-1.509Zm-14.878.61h.382a6.376,6.376,0,0,0-.482.908,3.6,3.6,0,0,1,.1-.908ZM13.716,10.2h-.948l2.125-2.125a11.263,11.263,0,0,1-.817,1.562c-.116.185-.235.372-.36.563Zm-5.39,4.442,3.183-3.187h1.305a16.173,16.173,0,0,1-1.268,1.477,5.051,5.051,0,0,1-3.221,1.709Zm5.857-7.281L11.346,10.2H9.868A21.505,21.505,0,0,1,12.62,8.179a11.263,11.263,0,0,1,1.562-.817Zm-4.094,4.094L7.615,13.929a2.407,2.407,0,0,1,.147-.876,5.6,5.6,0,0,1,.9-1.6Zm2.172,2.188a18.385,18.385,0,0,0,1.809-2.188H14.5a10.59,10.59,0,0,1-1.778,2.654A3.974,3.974,0,0,1,10.166,15.3c-.072,0-.141.006-.213.006H9.887a7.807,7.807,0,0,0,2.373-1.662ZM14.908,10.2c.044-.072.091-.147.131-.219.053-.088.1-.172.15-.257-.047.153-.1.313-.153.476ZM8.144,9.528a11.634,11.634,0,0,1,3.731-2.244c.225-.085.444-.157.654-.219-.085.047-.169.1-.257.15A20.928,20.928,0,0,0,8.61,10c-.066.066-.131.135-.2.2H7.6a4.072,4.072,0,0,1,.545-.673Zm12.99,2.658a9.914,9.914,0,0,1-.861,2.911c-1,.448-2.3,1.111-3.941,2-2.4,1.3-5.227,1.333-8.849-1.431A9.78,9.78,0,0,0,1.57,13.729a9.977,9.977,0,0,1-.335-1.54.631.631,0,0,1,.153-.51.621.621,0,0,1,.479-.216H6.021a4.338,4.338,0,0,0-.069.573,3.943,3.943,0,0,0,4,4.282c.091,0,.182,0,.275-.009a5,5,0,0,0,3.212-1.481,12.093,12.093,0,0,0,2.179-3.365h4.889a.628.628,0,0,1,.626.723Zm0,0" transform="translate(0.026)"/>
      </g>
    </g>
  </g>
</svg>
